<svg xmlns="http://www.w3.org/2000/svg" height="40" viewBox="0 -960 960 960" width="40"><path d="M258.461-120q-24.577 0-41.519-16.942Q200-153.884 200-178.461v-443.078q0-24.577 16.942-41.519Q233.884-680 258.461-680h84.616v-23.077q0-57.334 39.795-97.128Q422.667-840 480-840t97.128 39.795q39.795 39.794 39.795 97.128V-680h84.616q24.577 0 41.519 16.942Q760-646.116 760-621.539v443.078q0 24.577-16.942 41.519Q726.116-120 701.539-120H258.461Zm0-33.846h443.078q9.231 0 16.923-7.692 7.692-7.692 7.692-16.923v-443.078q0-9.231-7.692-16.923-7.692-7.692-16.923-7.692h-84.616v103.077q0 7.231-4.882 12.077-4.883 4.846-12.167 4.846T587.833-531q-4.756-4.846-4.756-12.077v-103.077H376.923v103.077q0 7.231-4.882 12.077-4.883 4.846-12.167 4.846T347.833-531q-4.756-4.846-4.756-12.077v-103.077h-84.616q-9.231 0-16.923 7.692-7.692 7.692-7.692 16.923v443.078q0 9.231 7.692 16.923 7.692 7.692 16.923 7.692ZM376.923-680h206.154v-23.077q0-43.513-29.782-73.295-29.782-29.782-73.295-29.782-43.513 0-73.295 29.782-29.782 29.782-29.782 73.295V-680ZM233.846-153.846v-492.308 492.308Z"/></svg>